<svg width="240.8" height="240.8" viewBox="51.2 -43.5 240.8 240.8" fill="none" xmlns="http://www.w3.org/2000/svg">
<path d="M240.759 122.122L237.736 110.842L249.503 107.689C250.107 107.528 250.768 107.593 251.351 107.932C252.517 108.602 252.917 110.094 252.243 111.256C251.573 112.421 250.081 112.822 248.92 112.147C247.754 111.478 246.266 111.873 245.592 113.039C244.922 114.205 245.318 115.693 246.484 116.367C248.102 117.298 250.081 117.62 252.03 117.098C255.927 116.054 258.242 112.047 257.198 108.145C256.223 104.513 252.678 102.256 249.041 102.812C248.776 102.856 248.511 102.908 248.245 102.978L236.479 106.131L233.455 94.8518C233.177 93.8165 231.994 93.3293 231.067 93.8687L184.922 120.787L176.296 123.096C175.861 123.214 175.605 123.658 175.722 124.093L176.144 125.663C176.262 126.098 176.705 126.355 177.14 126.237L185.766 123.927L239.189 124.166C240.259 124.171 241.042 123.157 240.763 122.122H240.759ZM209.665 112.165C209.435 111.534 209.761 110.834 210.392 110.603L229.466 103.661C230.097 103.43 230.798 103.756 231.028 104.387C231.259 105.018 230.932 105.718 230.302 105.949L211.227 112.891C210.596 113.122 209.896 112.796 209.665 112.165ZM212.915 120.008C212.253 120.125 211.618 119.682 211.505 119.02C211.388 118.359 211.832 117.724 212.493 117.611L232.485 114.088C233.147 113.97 233.782 114.414 233.895 115.075C234.012 115.736 233.568 116.371 232.907 116.484L212.915 120.008Z" fill="#E2421F"/>
<path d="M200.251 34.7563L198.494 30.7021C198.355 30.3802 198.029 30.1844 197.676 30.2149L195.358 30.4193C195.145 30.4367 194.931 30.3715 194.766 30.2323L191.473 27.47C191.129 27.1829 190.616 27.2264 190.329 27.5701L172.433 48.8938C172.146 49.2374 172.19 49.7507 172.533 50.0378L178.754 55.2578C179.097 55.5449 179.611 55.5014 179.898 55.1578L189.429 43.7956C189.568 43.6303 189.633 43.4171 189.616 43.204L189.468 41.5292C189.45 41.3161 189.516 41.1029 189.655 40.9376L192.578 37.4533C192.839 37.1444 193.291 37.0357 193.639 37.2401C194.083 37.5055 194.17 38.084 193.853 38.4625L191.334 41.464C191.195 41.6293 191.129 41.8424 191.147 42.0556L191.295 43.7303L191.799 49.4723L192.508 57.5633C192.548 58.0114 192.943 58.342 193.387 58.3028L201.478 57.5938C201.926 57.5546 202.257 57.1588 202.218 56.7151L200.317 35.0042C200.308 34.9172 200.286 34.8302 200.251 34.7519V34.7563ZM200.491 55.645C200.508 55.8668 200.347 56.0669 200.121 56.0843L194.457 56.5802C194.235 56.5976 194.035 56.4367 194.018 56.2105L193.948 55.4014C193.931 55.1795 194.092 54.9794 194.318 54.962L199.982 54.4661C200.204 54.4487 200.404 54.6097 200.421 54.8359L200.491 55.645Z" fill="#E2421F"/>
<path d="M170.497 51.0558C170.254 50.7991 169.875 50.7339 169.558 50.8861C165.43 52.8828 159.283 57.1719 152.162 62.1396C138.133 71.9227 120.677 84.1027 107.379 86.8128C107.018 86.8867 106.752 87.1956 106.731 87.561C106.709 87.9264 106.939 88.2657 107.292 88.3788C111.324 89.6838 115.4 90.4059 119.402 90.5146C120.259 90.5364 121.112 90.532 121.982 90.5016C122.095 90.5016 122.204 90.4711 122.308 90.4189L122.547 90.3015C126.645 88.2874 134.009 83.92 137.342 77.2558C137.481 76.9774 137.764 76.8078 138.072 76.8078C138.194 76.8078 138.32 76.8382 138.429 76.8948C138.829 77.0949 138.995 77.5864 138.794 77.9823C137.028 81.5145 134.079 84.7987 130.02 87.7437C129.703 87.9742 129.594 88.3962 129.764 88.7485C129.934 89.1009 130.329 89.2836 130.708 89.1835C135.053 88.0177 139.19 86.0907 143.001 83.4546C143.088 83.3937 143.166 83.3154 143.223 83.224C145.185 80.1529 147.721 75.5332 148.634 70.9657C148.721 70.5351 149.147 70.2393 149.587 70.3306C149.8 70.3741 149.987 70.4959 150.104 70.6786C150.222 70.857 150.265 71.0701 150.222 71.2833C149.891 72.9537 149.335 74.7372 148.573 76.5903C148.425 76.9513 148.556 77.3733 148.886 77.5821C149.217 77.7952 149.652 77.7387 149.917 77.4516C152.701 74.4544 155.024 71.1093 156.817 67.5162C156.956 67.2378 157.238 67.0681 157.547 67.0681C157.669 67.0681 157.795 67.0986 157.904 67.1551C158.304 67.3552 158.47 67.8468 158.269 68.2426C155.081 74.6241 150.27 80.2312 144.362 84.4638C143.236 85.2729 142.074 86.0211 140.909 86.6953L140.713 86.8084C139.53 87.4957 138.268 88.1395 136.967 88.7268C134.866 89.662 132.691 90.4189 130.503 90.9801C130.155 91.0714 129.903 91.3803 129.894 91.7413C129.881 92.1024 130.112 92.4286 130.455 92.5374C134.04 93.7075 137.268 95.0038 140.043 96.3915C140.443 96.5916 140.608 97.0788 140.408 97.479C140.217 97.8705 139.708 98.0401 139.321 97.8444C133.518 94.9429 126.793 93.042 123.3 92.1676C123.221 92.1459 123.139 92.1415 123.052 92.1459C122.852 92.1589 122.647 92.1676 122.421 92.1807C121.473 92.2242 120.424 92.2329 119.385 92.2024C114.848 92.0676 110.211 91.1758 105.608 89.5489C105.26 89.4271 104.877 89.5489 104.669 89.8534C104.46 90.1536 104.482 90.5581 104.721 90.8409C113.308 100.942 129.342 101.725 134.053 101.725C140.508 101.725 146.798 100.598 151.757 98.5534C152.084 98.4186 152.288 98.0836 152.258 97.7313C152.227 97.3789 151.971 97.0875 151.623 97.0092C149.408 96.522 147.799 94.521 147.799 92.2503C147.799 89.562 149.983 87.3783 152.671 87.3783C155.359 87.3783 157.543 89.562 157.543 92.2503C157.543 92.6766 157.486 93.0942 157.382 93.5031C157.291 93.8511 157.439 94.2208 157.747 94.4079C158.056 94.5949 158.452 94.5558 158.717 94.3078C158.874 94.1643 159.022 94.0207 159.17 93.8728C160.423 92.62 161.384 87.7915 162.841 80.0181C164.586 70.7221 166.761 59.1468 170.61 52.0128C170.776 51.7039 170.728 51.3211 170.484 51.0645L170.497 51.0558Z" fill="#E2421F"/>
<path d="M116.175 101.712C116.175 101.712 106.814 98.1098 99.9015 88.8443C93.4069 88.8443 80.4135 95.3389 80.4135 105.083L83.6629 109.955L80.4135 114.827C83.6629 119.699 86.908 124.571 103.151 126.193C103.425 125.371 103.651 124.693 103.843 124.123C101.146 122.783 93.4199 118.533 91.9453 113.143C91.0796 109.977 93.7331 103.456 98.6051 101.833C100.867 101.081 107.157 104.639 108.349 106.705C109.38 108.493 106.888 113.783 105.1 114.827C104.334 115.275 100.228 114.827 101.85 113.204C106.988 108.067 101.111 102.821 96.9783 108.332C92.6935 114.044 103.473 119.755 106.139 121.052L112.891 119.703L117.428 109.12L116.17 101.716L116.175 101.712Z" fill="#E2421F"/>
<path d="M182.96 110.768H178.902C178.454 110.768 178.088 111.134 178.088 111.582H176.466C176.466 111.582 173.216 103.46 161.85 103.46H156.978C156.403 103.46 155.929 104.678 155.355 104.678C154.781 104.678 154.307 103.46 153.733 103.46H126.123C122.874 103.46 119.629 105.083 119.629 106.71C119.629 108.336 121.251 109.959 121.251 110.768C121.251 111.577 119.629 113.204 119.629 114.827C119.629 116.449 121.251 118.076 121.251 118.885C121.251 119.694 119.629 121.321 119.629 122.944C119.629 124.566 122.878 126.193 126.123 126.193H153.733C154.307 126.193 154.781 124.975 155.355 124.975C155.929 124.975 156.403 126.193 156.978 126.193H161.85C173.216 126.193 176.466 118.072 176.466 118.072H178.088C178.088 118.52 178.454 118.885 178.902 118.885H182.96C183.408 118.885 183.774 118.52 183.774 118.072V111.577C183.774 111.129 183.408 110.764 182.96 110.764V110.768ZM133.836 121.73C133.836 122.404 133.292 122.948 132.618 122.948C131.943 122.948 131.4 122.404 131.4 121.73V107.928C131.4 107.253 131.943 106.71 132.618 106.71C133.292 106.71 133.836 107.253 133.836 107.928V121.73ZM141.953 121.73C141.953 122.404 141.409 122.948 140.735 122.948C140.06 122.948 139.517 122.404 139.517 121.73V107.928C139.517 107.253 140.06 106.71 140.735 106.71C141.409 106.71 141.953 107.253 141.953 107.928V121.73ZM150.074 121.73C150.074 122.404 149.53 122.948 148.856 122.948C148.182 122.948 147.638 122.404 147.638 121.73V107.928C147.638 107.253 148.182 106.71 148.856 106.71C149.53 106.71 150.074 107.253 150.074 107.928V121.73Z" fill="#E2421F"/>
<path d="M231.846 91.3022C231.946 91.2587 232.055 91.2543 232.159 91.2935L256.437 99.5585C256.537 99.5933 256.65 99.5889 256.745 99.5454L260.021 98.0186C260.43 97.8272 260.604 97.3443 260.412 96.9398L258.812 93.512L262.239 91.9112C262.648 91.7198 262.822 91.2369 262.631 90.8324L261.335 88.0527C261.278 87.9353 261.174 87.8526 261.048 87.8265L229.989 81.6147C229.41 81.4973 229.01 80.9927 229.01 80.4228C229.01 80.3402 229.019 80.2575 229.036 80.1749C229.171 79.5224 229.906 79.1135 230.558 79.244L242.965 81.7235C243.039 81.7365 243.112 81.7322 243.182 81.7061L261.026 75.3246C261.152 75.2811 261.248 75.1767 261.282 75.0462L262.205 71.5967C262.322 71.1617 262.065 70.718 261.63 70.6049L257.976 69.6261L258.955 65.9678C259.073 65.5371 258.816 65.0934 258.381 64.976L254.727 63.9972L255.706 60.3389C255.823 59.9082 255.567 59.4602 255.132 59.3471L251.478 58.3683L252.456 54.7143C252.574 54.2837 252.317 53.8356 251.882 53.7225L248.228 52.7438L249.207 49.0854C249.324 48.6548 249.068 48.2111 248.633 48.0936L245.357 47.2149C245.218 47.1758 245.066 47.2149 244.966 47.3193L242.664 49.6205L224.616 69.0563C224.16 69.5478 223.39 69.5783 222.894 69.1215C222.637 68.8823 222.502 68.556 222.502 68.2298C222.502 67.934 222.611 67.6338 222.828 67.4033L230.041 59.6385C230.297 59.3601 230.071 58.9164 229.697 58.9599L225.717 59.4254L218.492 60.2693C218.448 60.2736 218.405 60.2693 218.361 60.2649L204.567 58.1943C204.432 58.1769 204.297 58.2291 204.206 58.3379L201.914 61.0697C201.627 61.4133 201.67 61.9223 202.014 62.2094L204.911 64.641L202.479 67.5381C202.192 67.8818 202.236 68.3907 202.579 68.6778L205.476 71.1095L203.045 74.0066C202.758 74.3502 202.801 74.8592 203.145 75.1463L206.042 77.5779L203.61 80.475C203.323 80.8187 203.367 81.3276 203.71 81.6147L206.607 84.0464L204.176 86.9435C203.889 87.2871 203.932 87.7961 204.276 88.0832L207.173 90.5148L204.741 93.4119C204.454 93.7556 204.498 94.2645 204.841 94.5516L207.738 96.9833L205.307 99.8804C205.02 100.224 205.063 100.733 205.407 101.02L208.104 103.282C208.226 103.386 208.395 103.408 208.539 103.339L231.824 91.2804L231.846 91.3022Z" fill="#E2421F"/>
<path d="M193.5 83.5285C193.5 83.4676 193.509 83.4067 193.535 83.3545L198.912 71.3007C198.938 71.2398 198.951 71.1745 198.947 71.1049L198.486 64.5756C198.486 64.5408 198.486 64.5103 198.49 64.4755L198.694 63.3271C198.733 63.1053 198.942 62.9574 199.164 62.9965C199.386 63.0357 199.595 62.8878 199.634 62.6659L199.773 61.8655C199.812 61.6437 199.664 61.4349 199.443 61.3957L171.455 56.4585C171.233 56.4193 171.024 56.5672 170.985 56.7891L170.846 57.5895C170.806 57.8113 170.954 58.0201 171.176 58.0593C171.398 58.0984 171.546 58.3072 171.507 58.5291L171.302 59.6775C171.298 59.7123 171.285 59.7427 171.272 59.7732L168.61 65.7414C168.579 65.8066 168.571 65.8762 168.575 65.9502L169.789 77.5995L171.576 94.7472C171.629 95.2518 170.893 95.3779 170.776 94.882L168.223 83.9853C168.131 83.5938 167.587 83.559 167.448 83.9374L163.529 94.5297C163.507 94.5949 163.498 94.6645 163.507 94.7298L164.234 99.6409C164.238 99.6844 164.238 99.7279 164.234 99.7714L164.034 100.907C163.994 101.129 164.142 101.337 164.364 101.377L190.751 106.031C190.973 106.07 191.182 105.922 191.221 105.7L191.421 104.565C191.43 104.522 191.443 104.482 191.465 104.443L193.827 100.08C193.861 100.019 193.879 99.9498 193.875 99.8758L193.5 83.5155V83.5285ZM190.26 81.0664L190.007 70.1218C190.003 69.8652 190.234 69.6694 190.486 69.7129L195.245 70.5525C195.506 70.6003 195.654 70.8744 195.545 71.118L191.038 81.223C190.86 81.6189 190.273 81.5014 190.26 81.0664ZM191.182 99.6235L189.746 102.277C189.538 102.669 188.942 102.486 188.985 102.042L190.199 89.662C190.247 89.1531 190.999 89.1835 191.008 89.6925L191.23 99.4191C191.23 99.4887 191.217 99.5583 191.182 99.6235Z" fill="#E2421F"/>
</svg>
