<svg width="348" height="195" viewBox="0 0 348 195" fill="none" xmlns="http://www.w3.org/2000/svg">
<path d="M240.759 122.122L237.736 110.842L249.503 107.689C250.107 107.528 250.768 107.593 251.351 107.932C252.517 108.602 252.917 110.094 252.243 111.256C251.573 112.421 250.081 112.822 248.92 112.147C247.754 111.478 246.266 111.873 245.592 113.039C244.922 114.205 245.318 115.693 246.484 116.367C248.102 117.298 250.081 117.62 252.03 117.098C255.927 116.054 258.242 112.047 257.198 108.145C256.223 104.513 252.678 102.256 249.041 102.812C248.776 102.856 248.511 102.908 248.245 102.978L236.479 106.131L233.455 94.8518C233.177 93.8165 231.994 93.3293 231.067 93.8687L184.922 120.787L176.296 123.096C175.861 123.214 175.605 123.658 175.722 124.093L176.144 125.663C176.262 126.098 176.705 126.355 177.14 126.237L185.766 123.927L239.189 124.166C240.259 124.171 241.042 123.157 240.763 122.122H240.759ZM209.665 112.165C209.435 111.534 209.761 110.834 210.392 110.603L229.466 103.661C230.097 103.43 230.798 103.756 231.028 104.387C231.259 105.018 230.932 105.718 230.302 105.949L211.227 112.891C210.596 113.122 209.896 112.796 209.665 112.165ZM212.915 120.008C212.253 120.125 211.618 119.682 211.505 119.02C211.388 118.359 211.832 117.724 212.493 117.611L232.485 114.088C233.147 113.97 233.782 114.414 233.895 115.075C234.012 115.736 233.568 116.371 232.907 116.484L212.915 120.008Z" fill="#E2421F"/>
<path d="M200.251 34.7563L198.494 30.7021C198.355 30.3802 198.029 30.1844 197.676 30.2149L195.358 30.4193C195.145 30.4367 194.931 30.3715 194.766 30.2323L191.473 27.47C191.129 27.1829 190.616 27.2264 190.329 27.5701L172.433 48.8938C172.146 49.2374 172.19 49.7507 172.533 50.0378L178.754 55.2578C179.097 55.5449 179.611 55.5014 179.898 55.1578L189.429 43.7956C189.568 43.6303 189.633 43.4171 189.616 43.204L189.468 41.5292C189.45 41.3161 189.516 41.1029 189.655 40.9376L192.578 37.4533C192.839 37.1444 193.291 37.0357 193.639 37.2401C194.083 37.5055 194.17 38.084 193.853 38.4625L191.334 41.464C191.195 41.6293 191.129 41.8424 191.147 42.0556L191.295 43.7303L191.799 49.4723L192.508 57.5633C192.548 58.0114 192.943 58.342 193.387 58.3028L201.478 57.5938C201.926 57.5546 202.257 57.1588 202.218 56.7151L200.317 35.0042C200.308 34.9172 200.286 34.8302 200.251 34.7519V34.7563ZM200.491 55.645C200.508 55.8668 200.347 56.0669 200.121 56.0843L194.457 56.5802C194.235 56.5976 194.035 56.4367 194.018 56.2105L193.948 55.4014C193.931 55.1795 194.092 54.9794 194.318 54.962L199.982 54.4661C200.204 54.4487 200.404 54.6097 200.421 54.8359L200.491 55.645Z" fill="#E2421F"/>
<path d="M170.497 51.0558C170.254 50.7991 169.875 50.7339 169.558 50.8861C165.43 52.8828 159.283 57.1719 152.162 62.1396C138.133 71.9227 120.677 84.1027 107.379 86.8128C107.018 86.8867 106.752 87.1956 106.731 87.561C106.709 87.9264 106.939 88.2657 107.292 88.3788C111.324 89.6838 115.4 90.4059 119.402 90.5146C120.259 90.5364 121.112 90.532 121.982 90.5016C122.095 90.5016 122.204 90.4711 122.308 90.4189L122.547 90.3015C126.645 88.2874 134.009 83.92 137.342 77.2558C137.481 76.9774 137.764 76.8078 138.072 76.8078C138.194 76.8078 138.32 76.8382 138.429 76.8948C138.829 77.0949 138.995 77.5864 138.794 77.9823C137.028 81.5145 134.079 84.7987 130.02 87.7437C129.703 87.9742 129.594 88.3962 129.764 88.7485C129.934 89.1009 130.329 89.2836 130.708 89.1835C135.053 88.0177 139.19 86.0907 143.001 83.4546C143.088 83.3937 143.166 83.3154 143.223 83.224C145.185 80.1529 147.721 75.5332 148.634 70.9657C148.721 70.5351 149.147 70.2393 149.587 70.3306C149.8 70.3741 149.987 70.4959 150.104 70.6786C150.222 70.857 150.265 71.0701 150.222 71.2833C149.891 72.9537 149.335 74.7372 148.573 76.5903C148.425 76.9513 148.556 77.3733 148.886 77.5821C149.217 77.7952 149.652 77.7387 149.917 77.4516C152.701 74.4544 155.024 71.1093 156.817 67.5162C156.956 67.2378 157.238 67.0681 157.547 67.0681C157.669 67.0681 157.795 67.0986 157.904 67.1551C158.304 67.3552 158.47 67.8468 158.269 68.2426C155.081 74.6241 150.27 80.2312 144.362 84.4638C143.236 85.2729 142.074 86.0211 140.909 86.6953L140.713 86.8084C139.53 87.4957 138.268 88.1395 136.967 88.7268C134.866 89.662 132.691 90.4189 130.503 90.9801C130.155 91.0714 129.903 91.3803 129.894 91.7413C129.881 92.1024 130.112 92.4286 130.455 92.5374C134.04 93.7075 137.268 95.0038 140.043 96.3915C140.443 96.5916 140.608 97.0788 140.408 97.479C140.217 97.8705 139.708 98.0401 139.321 97.8444C133.518 94.9429 126.793 93.042 123.3 92.1676C123.221 92.1459 123.139 92.1415 123.052 92.1459C122.852 92.1589 122.647 92.1676 122.421 92.1807C121.473 92.2242 120.424 92.2329 119.385 92.2024C114.848 92.0676 110.211 91.1758 105.608 89.5489C105.26 89.4271 104.877 89.5489 104.669 89.8534C104.46 90.1536 104.482 90.5581 104.721 90.8409C113.308 100.942 129.342 101.725 134.053 101.725C140.508 101.725 146.798 100.598 151.757 98.5534C152.084 98.4186 152.288 98.0836 152.258 97.7313C152.227 97.3789 151.971 97.0875 151.623 97.0092C149.408 96.522 147.799 94.521 147.799 92.2503C147.799 89.562 149.983 87.3783 152.671 87.3783C155.359 87.3783 157.543 89.562 157.543 92.2503C157.543 92.6766 157.486 93.0942 157.382 93.5031C157.291 93.8511 157.439 94.2208 157.747 94.4079C158.056 94.5949 158.452 94.5558 158.717 94.3078C158.874 94.1643 159.022 94.0207 159.17 93.8728C160.423 92.62 161.384 87.7915 162.841 80.0181C164.586 70.7221 166.761 59.1468 170.61 52.0128C170.776 51.7039 170.728 51.3211 170.484 51.0645L170.497 51.0558Z" fill="#E2421F"/>
<path d="M116.175 101.712C116.175 101.712 106.814 98.1098 99.9015 88.8443C93.4069 88.8443 80.4135 95.3389 80.4135 105.083L83.6629 109.955L80.4135 114.827C83.6629 119.699 86.908 124.571 103.151 126.193C103.425 125.371 103.651 124.693 103.843 124.123C101.146 122.783 93.4199 118.533 91.9453 113.143C91.0796 109.977 93.7331 103.456 98.6051 101.833C100.867 101.081 107.157 104.639 108.349 106.705C109.38 108.493 106.888 113.783 105.1 114.827C104.334 115.275 100.228 114.827 101.85 113.204C106.988 108.067 101.111 102.821 96.9783 108.332C92.6935 114.044 103.473 119.755 106.139 121.052L112.891 119.703L117.428 109.12L116.17 101.716L116.175 101.712Z" fill="#E2421F"/>
<path d="M182.96 110.768H178.902C178.454 110.768 178.088 111.134 178.088 111.582H176.466C176.466 111.582 173.216 103.46 161.85 103.46H156.978C156.403 103.46 155.929 104.678 155.355 104.678C154.781 104.678 154.307 103.46 153.733 103.46H126.123C122.874 103.46 119.629 105.083 119.629 106.71C119.629 108.336 121.251 109.959 121.251 110.768C121.251 111.577 119.629 113.204 119.629 114.827C119.629 116.449 121.251 118.076 121.251 118.885C121.251 119.694 119.629 121.321 119.629 122.944C119.629 124.566 122.878 126.193 126.123 126.193H153.733C154.307 126.193 154.781 124.975 155.355 124.975C155.929 124.975 156.403 126.193 156.978 126.193H161.85C173.216 126.193 176.466 118.072 176.466 118.072H178.088C178.088 118.52 178.454 118.885 178.902 118.885H182.96C183.408 118.885 183.774 118.52 183.774 118.072V111.577C183.774 111.129 183.408 110.764 182.96 110.764V110.768ZM133.836 121.73C133.836 122.404 133.292 122.948 132.618 122.948C131.943 122.948 131.4 122.404 131.4 121.73V107.928C131.4 107.253 131.943 106.71 132.618 106.71C133.292 106.71 133.836 107.253 133.836 107.928V121.73ZM141.953 121.73C141.953 122.404 141.409 122.948 140.735 122.948C140.06 122.948 139.517 122.404 139.517 121.73V107.928C139.517 107.253 140.06 106.71 140.735 106.71C141.409 106.71 141.953 107.253 141.953 107.928V121.73ZM150.074 121.73C150.074 122.404 149.53 122.948 148.856 122.948C148.182 122.948 147.638 122.404 147.638 121.73V107.928C147.638 107.253 148.182 106.71 148.856 106.71C149.53 106.71 150.074 107.253 150.074 107.928V121.73Z" fill="#E2421F"/>
<path d="M231.846 91.3022C231.946 91.2587 232.055 91.2543 232.159 91.2935L256.437 99.5585C256.537 99.5933 256.65 99.5889 256.745 99.5454L260.021 98.0186C260.43 97.8272 260.604 97.3443 260.412 96.9398L258.812 93.512L262.239 91.9112C262.648 91.7198 262.822 91.2369 262.631 90.8324L261.335 88.0527C261.278 87.9353 261.174 87.8526 261.048 87.8265L229.989 81.6147C229.41 81.4973 229.01 80.9927 229.01 80.4228C229.01 80.3402 229.019 80.2575 229.036 80.1749C229.171 79.5224 229.906 79.1135 230.558 79.244L242.965 81.7235C243.039 81.7365 243.112 81.7322 243.182 81.7061L261.026 75.3246C261.152 75.2811 261.248 75.1767 261.282 75.0462L262.205 71.5967C262.322 71.1617 262.065 70.718 261.63 70.6049L257.976 69.6261L258.955 65.9678C259.073 65.5371 258.816 65.0934 258.381 64.976L254.727 63.9972L255.706 60.3389C255.823 59.9082 255.567 59.4602 255.132 59.3471L251.478 58.3683L252.456 54.7143C252.574 54.2837 252.317 53.8356 251.882 53.7225L248.228 52.7438L249.207 49.0854C249.324 48.6548 249.068 48.2111 248.633 48.0936L245.357 47.2149C245.218 47.1758 245.066 47.2149 244.966 47.3193L242.664 49.6205L224.616 69.0563C224.16 69.5478 223.39 69.5783 222.894 69.1215C222.637 68.8823 222.502 68.556 222.502 68.2298C222.502 67.934 222.611 67.6338 222.828 67.4033L230.041 59.6385C230.297 59.3601 230.071 58.9164 229.697 58.9599L225.717 59.4254L218.492 60.2693C218.448 60.2736 218.405 60.2693 218.361 60.2649L204.567 58.1943C204.432 58.1769 204.297 58.2291 204.206 58.3379L201.914 61.0697C201.627 61.4133 201.67 61.9223 202.014 62.2094L204.911 64.641L202.479 67.5381C202.192 67.8818 202.236 68.3907 202.579 68.6778L205.476 71.1095L203.045 74.0066C202.758 74.3502 202.801 74.8592 203.145 75.1463L206.042 77.5779L203.61 80.475C203.323 80.8187 203.367 81.3276 203.71 81.6147L206.607 84.0464L204.176 86.9435C203.889 87.2871 203.932 87.7961 204.276 88.0832L207.173 90.5148L204.741 93.4119C204.454 93.7556 204.498 94.2645 204.841 94.5516L207.738 96.9833L205.307 99.8804C205.02 100.224 205.063 100.733 205.407 101.02L208.104 103.282C208.226 103.386 208.395 103.408 208.539 103.339L231.824 91.2804L231.846 91.3022Z" fill="#E2421F"/>
<path d="M193.5 83.5285C193.5 83.4676 193.509 83.4067 193.535 83.3545L198.912 71.3007C198.938 71.2398 198.951 71.1745 198.947 71.1049L198.486 64.5756C198.486 64.5408 198.486 64.5103 198.49 64.4755L198.694 63.3271C198.733 63.1053 198.942 62.9574 199.164 62.9965C199.386 63.0357 199.595 62.8878 199.634 62.6659L199.773 61.8655C199.812 61.6437 199.664 61.4349 199.443 61.3957L171.455 56.4585C171.233 56.4193 171.024 56.5672 170.985 56.7891L170.846 57.5895C170.806 57.8113 170.954 58.0201 171.176 58.0593C171.398 58.0984 171.546 58.3072 171.507 58.5291L171.302 59.6775C171.298 59.7123 171.285 59.7427 171.272 59.7732L168.61 65.7414C168.579 65.8066 168.571 65.8762 168.575 65.9502L169.789 77.5995L171.576 94.7472C171.629 95.2518 170.893 95.3779 170.776 94.882L168.223 83.9853C168.131 83.5938 167.587 83.559 167.448 83.9374L163.529 94.5297C163.507 94.5949 163.498 94.6645 163.507 94.7298L164.234 99.6409C164.238 99.6844 164.238 99.7279 164.234 99.7714L164.034 100.907C163.994 101.129 164.142 101.337 164.364 101.377L190.751 106.031C190.973 106.07 191.182 105.922 191.221 105.7L191.421 104.565C191.43 104.522 191.443 104.482 191.465 104.443L193.827 100.08C193.861 100.019 193.879 99.9498 193.875 99.8758L193.5 83.5155V83.5285ZM190.26 81.0664L190.007 70.1218C190.003 69.8652 190.234 69.6694 190.486 69.7129L195.245 70.5525C195.506 70.6003 195.654 70.8744 195.545 71.118L191.038 81.223C190.86 81.6189 190.273 81.5014 190.26 81.0664ZM191.182 99.6235L189.746 102.277C189.538 102.669 188.942 102.486 188.985 102.042L190.199 89.662C190.247 89.1531 190.999 89.1835 191.008 89.6925L191.23 99.4191C191.23 99.4887 191.217 99.5583 191.182 99.6235Z" fill="#E2421F"/>
<path d="M27.8399 156.93V153.303C27.8399 152.18 28.7099 151.306 29.8365 151.306C30.3455 151.306 30.8544 151.489 31.1763 151.85L41.3727 151.815C41.7338 151.489 42.2079 151.271 42.7517 151.271C43.8392 151.271 44.7483 152.18 44.7483 153.268V157.439C44.7483 162.594 40.5375 166.801 35.348 166.801C34.2605 166.801 33.3513 165.931 33.3513 164.804C33.3513 163.677 34.2561 162.807 35.348 162.807C38.3234 162.807 40.755 160.415 40.755 157.435V154.712L31.8288 154.747V156.922C31.8288 158.009 30.9197 158.918 29.8322 158.918C28.7447 158.918 27.8355 158.014 27.8355 156.922L27.8399 156.93ZM34.1909 148.222C34.1909 146.986 35.1696 146.042 36.3659 146.042C37.5621 146.042 38.5452 146.986 38.5452 148.183C38.5452 149.379 37.5665 150.362 36.3659 150.362C35.1653 150.362 34.1909 149.418 34.1909 148.222Z" fill="#E2421F"/>
<path d="M56.0233 159.332C55.671 159.314 55.3665 159.436 55.1229 159.671C54.8749 159.91 54.7314 160.245 54.7314 160.589C54.7314 161.559 53.9397 162.351 52.9696 162.351C52.2606 162.351 51.682 162.929 51.682 163.638C51.682 164.347 52.2606 164.926 52.9696 164.926C55.3621 164.926 57.3066 162.995 57.3066 160.619C57.3066 159.897 56.7411 159.332 56.0233 159.332Z" fill="#E2421F"/>
<path d="M62.3437 155.991H61.3084C61.2867 155.073 60.508 154.307 59.5858 154.307C58.6636 154.307 57.885 155.06 57.8632 155.991L54.244 156.021C53.5219 156.021 52.9564 156.587 52.9564 157.309C52.9564 158.031 53.535 158.596 54.244 158.596L57.8632 158.566V163.773H57.8154C57.3543 163.773 56.9628 164.164 56.9628 164.626C56.9628 165.087 57.3673 165.478 57.8154 165.478H58.0894C58.4026 166.018 58.9725 166.348 59.5858 166.348C60.5341 166.348 61.3084 165.561 61.3084 164.595V158.566H62.3437C63.0658 158.566 63.6313 158.001 63.6313 157.278C63.6313 156.556 63.0528 155.991 62.3437 155.991Z" fill="#E2421F"/>
<path d="M83.2937 155.43H72.6623C71.8662 155.43 71.1964 156.1 71.1964 156.896C71.1964 157.692 71.8532 158.362 72.6623 158.362H83.2937C84.1028 158.362 84.7597 157.705 84.7597 156.896C84.7597 156.087 84.0897 155.43 83.2937 155.43Z" fill="#E2421F"/>
<path d="M92.4456 158.492C92.4456 157.366 93.3504 156.496 94.4423 156.496H99.9581V152.829H96.1475C95.3471 152.829 94.6946 152.176 94.6946 151.376C94.6946 150.575 95.3471 149.923 96.1475 149.923H99.9581V148.326C99.9581 147.204 100.863 146.33 101.955 146.33C103.047 146.33 103.951 147.2 103.951 148.326V149.923H107.762C108.558 149.923 109.215 150.575 109.215 151.376C109.215 152.176 108.562 152.829 107.762 152.829H103.951V156.496H109.432C110.559 156.496 111.429 157.366 111.429 158.492C111.429 159.619 110.559 160.489 109.432 160.489H103.951V164.734C103.951 165.861 103.047 166.731 101.955 166.731C100.863 166.731 99.9581 165.861 99.9581 164.734V160.489H94.4423C93.3548 160.489 92.4456 159.584 92.4456 158.492Z" fill="#E2421F"/>
<path d="M118.642 153.812C117.446 153.812 116.467 152.833 116.467 151.637C116.467 150.44 117.446 149.457 118.642 149.457C119.838 149.457 120.821 150.436 120.821 151.637C120.821 152.837 119.842 153.812 118.642 153.812ZM134.28 152.976C134.28 160.563 128.112 166.692 120.565 166.692C119.438 166.692 118.568 165.822 118.568 164.695C118.568 163.569 119.438 162.699 120.565 162.699C125.898 162.699 130.291 158.344 130.291 152.972C130.291 151.885 131.161 150.975 132.288 150.975C133.414 150.975 134.284 151.885 134.284 152.972L134.28 152.976Z" fill="#E2421F"/>
<path d="M140.331 156.678C140.331 155.551 141.201 154.681 142.327 154.681C143.672 154.681 144.794 153.555 144.794 152.176V149.309C144.794 148.222 145.664 147.313 146.791 147.313C147.917 147.313 148.787 148.222 148.787 149.309V150.762H153.25C153.616 150.436 154.12 150.218 154.629 150.218C155.756 150.218 156.626 151.127 156.626 152.215V159.727C156.626 163.321 153.724 166.222 150.166 166.222C149.079 166.222 148.17 165.317 148.17 164.225C148.17 163.133 149.079 162.229 150.166 162.229C151.545 162.229 152.633 161.102 152.633 159.723V153.664H148.605C147.952 156.53 145.377 158.67 142.327 158.67C141.201 158.67 140.331 157.766 140.331 156.674V156.678ZM153.176 146.516C153.829 146.516 154.338 147.025 154.338 147.678C154.338 148.296 153.829 148.839 153.176 148.839C152.524 148.839 152.015 148.296 152.015 147.678C152.015 147.025 152.524 146.516 153.176 146.516ZM157.239 147.678C157.239 148.296 156.73 148.839 156.078 148.839C155.425 148.839 154.916 148.296 154.916 147.678C154.916 147.025 155.425 146.516 156.078 146.516C156.73 146.516 157.239 147.025 157.239 147.678Z" fill="#E2421F"/>
<path d="M179.742 152.663V160.367C179.742 162.816 177.754 164.804 175.305 164.804C172.856 164.804 170.868 162.816 170.868 160.367C170.868 159.197 171.329 158.079 172.173 157.235C173.017 156.391 174.13 155.93 175.305 155.93C176.014 155.93 176.692 156.121 177.293 156.421V152.667C177.293 151.989 177.836 151.441 178.515 151.441C179.194 151.441 179.742 151.984 179.742 152.667V152.663ZM177.293 160.367C177.293 159.279 176.392 158.379 175.305 158.379C174.787 158.379 174.295 158.596 173.917 158.979C173.539 159.362 173.317 159.849 173.317 160.367C173.317 161.454 174.213 162.355 175.305 162.355C176.397 162.355 177.293 161.454 177.293 160.367Z" fill="#E2421F"/>
<path d="M181.346 160.341C181.346 157.892 183.334 155.904 185.783 155.904C188.233 155.904 190.22 157.892 190.22 160.341C190.22 161.019 189.677 161.567 188.994 161.567H184.231C184.613 162.002 185.157 162.303 185.783 162.303C186.462 162.303 187.006 162.872 187.006 163.525C187.006 164.177 186.462 164.752 185.783 164.752C183.334 164.752 181.346 162.764 181.346 160.345V160.341ZM184.204 159.114H187.363C186.98 158.653 186.436 158.353 185.783 158.353C185.131 158.353 184.587 158.653 184.204 159.114Z" fill="#E2421F"/>
<path d="M213.068 162.772V153.772H203.163C202.362 153.772 201.71 153.12 201.71 152.319C201.71 151.519 202.362 150.866 203.163 150.866H213.685C214.051 150.501 214.52 150.323 215.064 150.323C216.152 150.323 217.061 151.193 217.061 152.319V164.221C217.061 165.308 216.156 166.217 215.064 166.217C214.52 166.217 214.046 166 213.685 165.674H203.163C202.362 165.674 201.71 165.021 201.71 164.221C201.71 163.42 202.362 162.768 203.163 162.768H213.068V162.772ZM213.611 148.839C212.959 148.839 212.45 148.295 212.45 147.678C212.45 147.025 212.959 146.516 213.611 146.516C214.264 146.516 214.773 147.025 214.773 147.678C214.773 148.295 214.264 148.839 213.611 148.839ZM216.513 148.839C215.86 148.839 215.351 148.295 215.351 147.678C215.351 147.025 215.86 146.516 216.513 146.516C217.165 146.516 217.674 147.025 217.674 147.678C217.674 148.295 217.165 148.839 216.513 148.839Z" fill="#E2421F"/>
<path d="M228.745 166.222C227.657 166.222 226.748 165.317 226.748 164.225C226.748 163.133 227.657 162.229 228.745 162.229H241.012C242.099 162.229 243.008 163.133 243.008 164.225C243.008 165.317 242.103 166.222 241.012 166.222H228.745ZM228.888 151.306C228.088 151.306 227.435 150.653 227.435 149.853C227.435 149.052 228.088 148.4 228.888 148.4H240.498C241.333 148.4 241.951 149.052 241.951 149.853C241.951 150.653 241.333 151.306 240.498 151.306H228.888ZM228.888 158.166C228.088 158.166 227.435 157.513 227.435 156.713C227.435 155.912 228.088 155.26 228.888 155.26H240.498C241.333 155.26 241.951 155.912 241.951 156.713C241.951 157.513 241.333 158.166 240.498 158.166H228.888Z" fill="#E2421F"/>
<path d="M250.36 150.218C250.36 149.601 250.83 149.131 251.447 149.131H255.075C255.441 148.552 256.054 148.226 256.746 148.226C257.872 148.226 258.742 149.096 258.742 150.223V160.998C258.742 161.689 259.034 162.342 259.504 162.846C260.013 163.316 260.665 163.608 261.352 163.608C262.805 163.573 263.967 162.411 263.967 160.993V159.975C263.967 158.853 264.872 157.979 265.963 157.979C267.055 157.979 267.96 158.849 267.96 159.975V160.993C267.96 164.621 264.985 167.562 261.357 167.596C259.578 167.596 257.946 166.905 256.676 165.635C255.441 164.399 254.754 162.733 254.754 160.989V151.301H251.452C250.834 151.301 250.364 150.792 250.364 150.214L250.36 150.218ZM270.501 157.731C267.416 157.731 264.911 155.225 264.911 152.141C264.911 151.014 265.82 150.144 266.907 150.144C267.995 150.144 268.904 151.014 268.904 152.141C268.904 153.011 269.631 153.737 270.501 153.737C271.588 153.737 272.497 154.607 272.497 155.734C272.497 156.861 271.588 157.731 270.501 157.731Z" fill="#E2421F"/>
<path d="M291.772 149.383L287.418 153.737C288.505 154.064 289.523 154.642 290.358 155.477C291.629 156.748 292.355 158.453 292.355 160.232C292.355 162.011 291.629 163.751 290.358 165.021C289.088 166.291 287.383 166.979 285.604 166.979C284.803 166.979 284.151 166.326 284.151 165.526C284.151 164.725 284.803 164.073 285.604 164.073C286.622 164.073 287.6 163.673 288.327 162.951C289.815 161.463 289.815 159.031 288.327 157.509C287.6 156.782 286.622 156.382 285.604 156.382C285.278 156.382 284.951 156.456 284.66 156.526L283.246 157.905C282.485 158.705 281.215 158.705 280.453 157.905C279.653 157.143 279.653 155.873 280.453 155.073L286.113 149.414H282.776C281.976 149.414 281.323 148.761 281.323 147.961C281.323 147.16 281.976 146.508 282.776 146.508H289.019C289.819 145.781 291.015 145.781 291.776 146.542C292.577 147.343 292.577 148.574 291.776 149.374L291.772 149.383Z" fill="#E2421F"/>
<path d="M301.399 159.94C300.311 157.291 300.311 154.39 301.399 151.741C301.834 150.723 302.995 150.218 304.013 150.653C305.031 151.088 305.536 152.25 305.101 153.268C304.413 154.938 304.413 156.752 305.101 158.422C305.501 159.401 306.118 160.271 306.914 160.928V159.44C306.914 158.822 307.384 158.353 308.002 158.353C308.581 158.353 309.089 158.822 309.089 159.44V162.272C309.851 162.781 310.216 163.799 309.851 164.704C309.416 165.722 308.254 166.191 307.236 165.791C304.552 164.665 302.517 162.598 301.394 159.949L301.399 159.94ZM313.122 152.432C313.122 151.632 313.774 150.979 314.575 150.979C317.659 150.979 320.165 153.485 320.165 156.569C320.165 157.365 319.512 158.022 318.712 158.022C318.351 158.022 318.024 157.913 317.768 157.657H316.389C315.771 157.657 315.301 157.187 315.301 156.569C315.301 155.986 315.775 155.482 316.389 155.482H317.006C316.606 154.538 315.662 153.885 314.575 153.885C313.774 153.885 313.122 153.233 313.122 152.432Z" fill="#E2421F"/>
</svg>
