<?xml version="1.0" encoding="UTF-8"?>
<svg id="_レイヤー_2" data-name="レイヤー 2" xmlns="http://www.w3.org/2000/svg" viewBox="0 0 320 320">
  <defs>
    <style>
      .cls-1 {
        fill: #fff;
      }

      .cls-2 {
        fill: none;
      }

      .cls-3 {
        fill: #00a0c1;
      }
    </style>
  </defs>
  <g id="_レイヤー_1-2" data-name="レイヤー 1">
    <g id="logoConcept">
      <rect id="logoConceptBackground" class="cls-1" width="320" height="320"/>
      <g id="logoConceptBase">
        <g id="logoMarkBase">
          <path id="logoMarkPath" class="cls-3" d="M199.8,233.9c-.87-8.46-2.8-16.85-5.79-24.99-.81-2.05-2.99-3.12-5.08-2.44-8.61,2.98-17.92,4.27-26.98,3.17-9.3-1.38-8.66-15.23.72-15.86,3.52-.24,7.01-.91,10.36-2.03,6.7-2.24,7.8-8.49,3.26-13.1-3.7-3.78-8.09-6.83-13.26-7.99-1.98-.43-4.05-.43-6.04,0-10.76,2.47-17.73,12.46-23.04,21.4-4.09,6.95-7.27,14.21-9.58,21.65-.99,3.3.18,6.87,3,8.86,10.11,6.93,22,10.72,34.05,11.23,10.03.42,10.22,15.1.21,15.97-11.63.83-23.21-.65-34.58-3.91-3.23-.8-5.86,2.01-4.94,5.17,4.24,12.63,14.54,22.61,28.16,25.82,26.32,6.2,49.73-13.61,49.73-38.85,0-1.39-.08-2.73-.2-4.1Z"/>
          <rect id="logoMarkFrame" class="cls-2" x="120" y="170" width="80" height="108"/>
        </g>
        <g id="S">
          <path class="cls-3" d="M77.35,48.32v12.04c-5.12-4.46-10.62-6.92-16.4-6.92s-8.63,2.75-8.63,6.63c0,3.32,1.23,5.97,10.24,10.9,12.23,6.73,17.44,11.37,17.44,21.14,0,10.33-8.34,17.72-20.47,17.72-6.73,0-13.37-2.08-19.15-5.69v-13.08c5.69,5.78,11.85,8.72,18.1,8.72,5.59,0,9-3.22,9-7.3s-1.23-6.44-12.99-12.8c-8.34-4.74-14.5-9.76-14.5-19.24s7.87-16.97,20.38-16.97c6.26,0,12.23,1.8,16.97,4.83Z"/>
        </g>
        <g id="ColumbusEgg">
          <path id="crack" class="cls-3" d="M158,97.83c-.84,0-1.62-.53-1.9-1.37l-1.74-5.21-3.26-1.63c-.99-.49-1.39-1.7-.89-2.68.49-.99,1.69-1.39,2.68-.89l4,2c.47.24.83.65,1,1.16l2,6c.35,1.05-.22,2.18-1.26,2.53-.21.07-.42.1-.63.1Z"/>
          <path id="egg" class="cls-3" d="M159.97,97.83c-1.75,0-3.53-.2-5.29-.62-10.12-2.38-16.97-11.43-16.67-22.01,0-.24.02-.49.04-.73l.03-.38c0-.08,0-.19.03-.33l.05-.48c.82-7.62,3.21-14.83,7.11-21.43.81-1.4,1.72-2.8,2.7-4.14.07-.11.14-.21.22-.31.13-.19.27-.36.42-.55.61-.79,1.3-1.56,2.04-2.27.71-.7,1.52-1.38,2.37-2.01.68-.5,1.37-.94,2.06-1.32l.12-.06c.92-.43,1.89-.76,2.9-.98,1.27-.27,2.61-.27,3.87,0,1,.22,1.97.55,2.88.98l.12.06c.69.38,1.38.83,2.06,1.32.85.61,1.67,1.31,2.42,2.05.8.77,1.55,1.62,2.21,2.51.06.07.16.2.26.34,1.05,1.44,2.01,2.92,2.86,4.37,3.95,6.68,6.35,14,7.14,21.75l.03.31c.02.22.04.43.04.66.03.37.04.83.04,1.29,0,6.76-3.04,13.05-8.35,17.26-3.92,3.11-8.72,4.74-13.68,4.74ZM142.07,74.27l-.03.48c-.01.2-.02.38-.03.57-.25,8.66,5.34,16.06,13.59,18,5.55,1.31,11.22.08,15.57-3.36,4.34-3.44,6.84-8.59,6.84-14.12,0-.36,0-.72-.03-1.07,0-.23-.02-.38-.04-.53l-.03-.3c-.73-7.11-2.95-13.88-6.61-20.07-.78-1.34-1.68-2.71-2.67-4.07-.07-.09-.12-.16-.17-.22-.57-.77-1.17-1.45-1.83-2.08-.63-.62-1.29-1.18-1.99-1.68-.53-.39-1.06-.73-1.59-1.03-.62-.29-1.28-.51-1.96-.66-.71-.16-1.46-.16-2.17,0-.69.15-1.36.37-1.98.66-.52.29-1.05.64-1.58,1.02-.71.52-1.34,1.06-1.95,1.65-.62.59-1.17,1.21-1.67,1.85-.14.17-.25.32-.36.48l-.15.21c-.91,1.25-1.76,2.56-2.53,3.88-3.61,6.12-5.82,12.79-6.58,19.84l-.06.56Z"/>
          <rect id="foundation" class="cls-3" x="128" y="93.83" width="64" height="16" rx="4" ry="4"/>
          <path id="crack-2" data-name="crack" class="cls-3" d="M169.9,85.2c-.35-1.05-1.48-1.62-2.53-1.26l-4.83,1.61-1.13-1.13c-.78-.78-2.05-.78-2.83,0s-.78,2.05,0,2.83l1.77,1.77,1.41,2.82-3.55,7.11c-.49.99-.09,2.19.89,2.68.29.14.59.21.89.21.73,0,1.44-.4,1.79-1.11l4-8c.28-.56.28-1.23,0-1.79l-.97-1.94,3.81-1.27c1.05-.35,1.61-1.48,1.26-2.53Z"/>
        </g>
        <g id="hug">
          <circle id="path" class="cls-3" cx="250" cy="53.83" r="12"/>
          <path id="path-2" data-name="path" class="cls-3" d="M266,41.83c-1.6,0-3.11.34-4.5.9,2.78,2.88,4.5,6.79,4.5,11.1s-1.72,8.22-4.5,11.1c1.39.57,2.9.9,4.5.9,6.63,0,12-5.37,12-12s-5.37-12-12-12Z"/>
          <path id="path-3" data-name="path" class="cls-3" d="M284,81.83v.47c-5.11,3.47-11.12,5.39-17.26,5.53-.5.01-.99.01-1.48,0-.77-.01-1.53-.07-2.29-.18-4.71-.7-4.29-7.6.47-7.94,5.75-.41,11.32-3.17,14.79-8.15,3.46,2.11,5.77,5.92,5.77,10.27Z"/>
          <path id="path-4" data-name="path" class="cls-3" d="M258.94,107.82c.35.01.71.02,1.06.02h.18c.89-.01,1.77-.05,2.63-.12,4.98-.44,4.92-7.78-.07-7.99-6.01-.25-11.95-2.13-17-5.58-1.09-.75-1.74-1.99-1.74-3.31v-9.01c0-6.63,5.37-12,12-12h-8c-6.63,0-12,5.37-12,12v28h8v-1.85c0-1.31,1.24-2.27,2.51-1.93,4.11,1.11,8.28,1.69,12.43,1.76Z"/>
        </g>
        <path id="arrow" class="cls-3" d="M161,128c0-.55-.45-1-1-1s-1,.45-1,1v11.6c0,.55-.45,1-1,1h-2.85c-.77,0-1.25.83-.87,1.5l4.85,8.4c.38.67,1.35.67,1.73,0l4.85-8.4c.38-.67-.1-1.5-.87-1.5h-2.85c-.55,0-1-.45-1-1v-11.6Z"/>
        <path id="arrow-2" data-name="arrow" class="cls-3" d="M111.84,141.94c-.39.39-1.02.39-1.41,0l-8.2-8.2c-.39-.39-1.02-.39-1.41,0s-.39,1.02,0,1.41l8.2,8.2c.39.39.39,1.02,0,1.41l-2.01,2.01c-.54.54-.3,1.47.45,1.67l9.37,2.51c.74.2,1.42-.48,1.22-1.22l-2.51-9.37c-.2-.74-1.13-.99-1.67-.45l-2.02,2.02Z"/>
        <path id="arrow-3" data-name="arrow" class="cls-3" d="M219.19,133.74c-.39-.39-1.02-.39-1.41,0l-8.2,8.2c-.39.39-1.02.39-1.41,0l-2.02-2.02c-.54-.54-1.47-.3-1.67.45l-2.51,9.37c-.2.74.48,1.42,1.22,1.22l9.37-2.51c.74-.2.99-1.13.45-1.67l-2.01-2.01c-.39-.39-.39-1.02,0-1.41l8.2-8.2c.39-.39.39-1.02,0-1.41Z"/>
      </g>
    </g>
  </g>
</svg>