<svg id="Capa_1" enable-background="new 0 0 512 512" height="512" viewBox="0 0 512 512" width="512" xmlns="http://www.w3.org/2000/svg"><g><path d="m183.04 0h72.96l31 142-31 252.22c-9.99-10.88-22.84-18.87-37.2-22.97l-94.39-26.96c9.801-39.198 35.592-70.531 68.92-87.95v-226.34h-10.29c-8.28 0-15-6.72-15-15s6.72-15 15-15z" fill="#e6f7ff"/><path d="m391.5 376.5c0 21.908-5.191 43.429-15.34 62.76h-45.83c-13.41 0-26.36-3.33-37.85-9.44s-21.5-15-28.99-26.11c-2.27-3.36-4.77-6.53-7.49-9.49v-394.22h72.96c8.28 0 15 6.72 15 15s-6.72 15-15 15h-10.29v226.34c44.45 23.24 72.83 69.7 72.83 120.16z" fill="#cce6ff"/><path d="m256 361.6 16 76.034-16 74.366c-35.8 0-69.57-13.95-95.23-39.36-25.97-25.72-40.27-59.86-40.27-96.14 0-20.876 4.883-41.232 13.74-59.28l93.05 26.58c11.09 3.17 21.02 9.36 28.71 17.8z" fill="#4d578c"/><path d="m390.12 396c-4.4 29.829-17.758 55.56-37.87 75.88-25.3 25.52-59.01 39.77-94.92 40.11-.45.01-.89.01-1.33.01v-150.4c2.03 2.22 3.9 4.59 5.59 7.11 5.75 8.53 13.43 15.35 22.25 20.04s18.76 7.25 29.05 7.25z" fill="#333e73"/><circle cx="52.527" cy="207.03" fill="#4d578c" r="52.527"/><path d="m459.473 17.595c-28.964 0-52.527 23.563-52.527 52.527s23.563 52.528 52.527 52.528 52.527-23.565 52.527-52.528c0-28.964-23.563-52.527-52.527-52.527z" fill="#333e73"/></g></svg>