<svg id="Layer_1" enable-background="new 0 0 512 512" height="512" viewBox="0 0 512 512" width="512" xmlns="http://www.w3.org/2000/svg"><g><g><path d="m256 481.875c-2.298 0-4.597-.528-6.708-1.583l-241-120.5c-5.082-2.542-8.292-7.735-8.292-13.417s3.21-10.875 8.292-13.417l241-120.5c4.223-2.111 9.193-2.111 13.416 0l241 120.5c5.082 2.541 8.292 7.735 8.292 13.417s-3.21 10.875-8.292 13.417l-241 120.5c-2.111 1.055-4.41 1.583-6.708 1.583z" fill="#ff73a5"/></g><path d="m262.708 480.292 241-120.5c5.082-2.541 8.292-7.735 8.292-13.417s-3.21-10.875-8.292-13.417l-241-120.5c-2.111-1.056-4.41-1.583-6.708-1.583v271c2.298 0 4.597-.528 6.708-1.583z" fill="#ff468c"/><path d="m503.708 242.583-241-120.5c-4.223-2.111-9.193-2.111-13.416 0l-241 120.5c-5.082 2.542-8.292 7.735-8.292 13.417s3.21 10.875 8.292 13.417l241 120.5c2.111 1.056 4.41 1.583 6.708 1.583s4.597-.528 6.708-1.583l241-120.5c5.082-2.542 8.292-7.735 8.292-13.417s-3.21-10.875-8.292-13.417z" fill="#636978"/><path d="m262.708 389.917 241-120.5c5.082-2.542 8.292-7.735 8.292-13.417s-3.21-10.875-8.292-13.417l-241-120.5c-2.111-1.056-4.41-1.583-6.708-1.583v271c2.298 0 4.597-.528 6.708-1.583z" fill="#414952"/><path d="m503.708 152.208-241-120.5c-4.223-2.111-9.193-2.111-13.416 0l-241 120.5c-5.082 2.542-8.292 7.735-8.292 13.417s3.21 10.875 8.292 13.417l241 120.5c2.111 1.056 4.41 1.583 6.708 1.583s4.597-.528 6.708-1.583l241-120.5c5.082-2.541 8.292-7.735 8.292-13.417s-3.21-10.875-8.292-13.417z" fill="#64e1dc"/><path d="m262.708 299.542 241-120.5c5.082-2.541 8.292-7.735 8.292-13.417s-3.21-10.875-8.292-13.417l-241-120.5c-2.111-1.056-4.41-1.583-6.708-1.583v271c2.298 0 4.597-.528 6.708-1.583z" fill="#00c8c8"/></g></svg>