<?xml version="1.0" encoding="UTF-8"?>
<svg id="_レイヤー_2" data-name="レイヤー 2" xmlns="http://www.w3.org/2000/svg" viewBox="0 0 32 32">
  <defs>
    <style>
      .cls-1 {
        fill: #fff;
      }

      .cls-2 {
        fill: #231815;
      }
    </style>
  </defs>
  <g id="_レイヤー_1-2" data-name="レイヤー 1">
    <g>
      <rect class="cls-2" width="32" height="32" rx="8" ry="8"/>
      <g>
        <path class="cls-1" d="M19.83,20.37c-.17,0-.34-.04-.5-.13-.48-.28-.64-.89-.37-1.37l3.5-6.06c.53-.93.68-2,.4-3.04s-.94-1.89-1.86-2.43c-1.91-1.1-4.36-.45-5.46,1.46l-.5.87c-.28.48-.89.64-1.37.37-.48-.28-.64-.89-.37-1.37l.5-.87c1.65-2.86,5.33-3.85,8.2-2.2,1.39.8,2.38,2.1,2.8,3.64.42,1.55.2,3.17-.6,4.55l-3.5,6.06c-.19.32-.52.5-.87.5Z"/>
        <path class="cls-1" d="M12.99,27.19c-1.02,0-2.05-.26-2.99-.8-1.39-.8-2.38-2.1-2.8-3.64-.42-1.55-.2-3.17.6-4.55l3.5-6.06c.28-.48.89-.64,1.37-.37.48.28.64.89.37,1.37l-3.5,6.06c-.53.93-.68,2-.4,3.04s.94,1.89,1.86,2.43c1.91,1.1,4.36.45,5.46-1.46l.5-.87c.28-.48.89-.64,1.37-.37.48.28.64.89.37,1.37l-.5.87c-1.11,1.92-3.13,3-5.21,3Z"/>
        <path class="cls-1" d="M18,12.54c-.96-.55-2.18-.22-2.73.73-.27.46-.34,1-.2,1.52.14.52.47.95.93,1.21.31.18.66.27,1,.27.69,0,1.37-.36,1.74-1h0c.55-.96.22-2.18-.73-2.73Z"/>
      </g>
    </g>
  </g>
</svg>