<?xml version="1.0" encoding="UTF-8"?>
<svg id="_レイヤー_2" data-name="レイヤー 2" xmlns="http://www.w3.org/2000/svg" viewBox="0 0 216.67 86.4">
  <defs>
    <style>
      .cls-1 {
        fill: none;
      }

      .cls-2 {
        fill: #00a0c1;
      }
    </style>
  </defs>
  <g id="_レイヤー_1-2" data-name="レイヤー 1">
    <g id="logoHorizontal">
      <g id="logoHorizontalBase">
        <path id="logoMarkPath" class="cls-2" d="M55.62,48.15c-.43-4.23-1.4-8.43-2.9-12.5-.41-1.03-1.49-1.56-2.54-1.22-4.31,1.49-8.96,2.13-13.49,1.59-4.65-.69-4.33-7.62.36-7.93,1.76-.12,3.51-.46,5.18-1.01,3.35-1.12,3.9-4.25,1.63-6.55-1.85-1.89-4.05-3.41-6.63-4-.99-.22-2.03-.22-3.02,0-5.38,1.24-8.86,6.23-11.52,10.7-2.05,3.47-3.63,7.11-4.79,10.82-.49,1.65.09,3.44,1.5,4.43,5.05,3.47,11,5.36,17.02,5.62,5.02.21,5.11,7.55.11,7.99-5.82.41-11.61-.33-17.29-1.95-1.61-.4-2.93,1-2.47,2.58,2.12,6.31,7.27,11.31,14.08,12.91,13.16,3.1,24.86-6.8,24.86-19.43,0-.69-.04-1.37-.1-2.05Z"/>
        <g id="logoTypo">
          <path id="t" class="cls-2" d="M191.41,31.34h.38v5.35h7.23v4.48h-7.23v9.5c0,2.27.48,4.1,3.18,4.1,1.78,0,3.57-.72,5.01-1.59v4.82c-1.78,1.01-4.44,1.59-6.36,1.59-4.97,0-7.47-2.56-7.47-8.39v-10.03h-3.76v-.77l9.02-9.06Z"/>
          <path id="p" class="cls-2" d="M169.47,59.59c-1.88,0-2.99-.19-5.21-1.25v11.86h-5.64v-33.51h9.16c7.23,0,12.68,3.04,12.68,11.33,0,6.22-4.1,11.57-10.99,11.57ZM164.27,53.81c1.16.77,2.75,1.2,4.24,1.2,3.57,0,6.12-2.85,6.12-6.85,0-4.44-2.46-6.85-6.94-6.85h-3.42v12.49Z"/>
          <path id="e" class="cls-2" d="M153.96,47.97v.87h-15.77c.39,3.71,3.09,6.22,6.94,6.22,2.89,0,5.79-.96,8.34-2.56v4.53c-2.85,1.78-5.79,2.56-9.31,2.56-6.7,0-11.72-4.53-11.72-11.81,0-6.65,4.29-11.52,11.23-11.52,5.74,0,10.27,4.15,10.27,11.72ZM148.51,45.76c-.14-3.28-1.93-5.26-4.97-5.26s-5.21,2.22-5.35,5.26h10.32Z"/>
          <path id="w" class="cls-2" d="M100.06,36.69l5.26,12.82,5.26-12.82h3.86l5.26,12.82,5.21-12.82h5.83l-9.55,22.76h-2.6l-6.08-14.51-5.98,14.51h-2.7l-9.64-22.76h5.88Z"/>
          <path id="S" class="cls-2" d="M90.71,28.3v6.12c-2.6-2.27-5.4-3.52-8.34-3.52s-4.39,1.4-4.39,3.38c0,1.69.63,3.04,5.21,5.54,6.22,3.42,8.87,5.79,8.87,10.75,0,5.26-4.24,9.02-10.41,9.02-3.42,0-6.8-1.06-9.74-2.89v-6.65c2.89,2.94,6.03,4.44,9.21,4.44,2.85,0,4.58-1.64,4.58-3.71s-.63-3.28-6.61-6.51c-4.24-2.41-7.38-4.97-7.38-9.79s4-8.63,10.37-8.63c3.18,0,6.22.92,8.63,2.46Z"/>
        </g>
      </g>
      <rect id="logoHorizontalMargin" class="cls-1" width="216.67" height="86.4"/>
    </g>
  </g>
</svg>