<?xml version="1.0" encoding="UTF-8"?>
<svg id="_レイヤー_2" data-name="レイヤー 2" xmlns="http://www.w3.org/2000/svg" viewBox="0 0 93.34 102.7">
  <defs>
    <style>
      .cls-1 {
        fill: none;
      }

      .cls-2 {
        fill: #00a0c1;
      }
    </style>
  </defs>
  <g id="_レイヤー_1-2" data-name="レイヤー 1">
    <g id="logoVertival">
      <g id="logoVerticalBase">
        <path id="logoMarkPath" class="cls-2" d="M66.57,46.62c-.43-4.23-1.4-8.43-2.9-12.5-.41-1.03-1.49-1.56-2.54-1.22-4.31,1.49-8.96,2.13-13.49,1.59-4.65-.69-4.33-7.62.36-7.93,1.76-.12,3.51-.46,5.18-1.01,3.35-1.12,3.9-4.25,1.63-6.55-1.85-1.89-4.05-3.41-6.63-4-.99-.22-2.03-.22-3.02,0-5.38,1.24-8.86,6.23-11.52,10.7-2.05,3.47-3.63,7.11-4.79,10.82-.49,1.65.09,3.44,1.5,4.43,5.05,3.47,11,5.36,17.02,5.62,5.02.21,5.11,7.55.11,7.99-5.82.41-11.61-.33-17.29-1.95-1.61-.4-2.93,1-2.47,2.58,2.12,6.31,7.27,11.31,14.08,12.91,13.16,3.1,24.86-6.8,24.86-19.43,0-.69-.04-1.37-.1-2.05Z"/>
        <g id="logoTypo">
          <path id="t" class="cls-2" d="M74.39,74h.19v2.67h3.61v2.24h-3.61v4.74c0,1.13.24,2.04,1.59,2.04.89,0,1.78-.36,2.5-.79v2.41c-.89.51-2.21.79-3.18.79-2.48,0-3.73-1.27-3.73-4.19v-5h-1.88v-.38l4.5-4.52Z"/>
          <path id="p" class="cls-2" d="M63.45,88.1c-.94,0-1.49-.1-2.6-.63v5.92h-2.81v-16.72h4.57c3.61,0,6.33,1.52,6.33,5.65,0,3.1-2.04,5.77-5.49,5.77ZM60.85,85.21c.58.38,1.37.6,2.12.6,1.78,0,3.05-1.42,3.05-3.42,0-2.21-1.23-3.42-3.46-3.42h-1.71v6.23Z"/>
          <path id="e" class="cls-2" d="M55.7,82.3v.43h-7.87c.19,1.85,1.54,3.1,3.46,3.1,1.44,0,2.89-.48,4.16-1.27v2.26c-1.42.89-2.89,1.27-4.64,1.27-3.34,0-5.85-2.26-5.85-5.89,0-3.32,2.14-5.75,5.61-5.75,2.86,0,5.12,2.07,5.12,5.85ZM52.98,81.19c-.07-1.64-.96-2.62-2.48-2.62s-2.6,1.11-2.67,2.62h5.15Z"/>
          <path id="w" class="cls-2" d="M28.81,76.67l2.62,6.4,2.62-6.4h1.92l2.62,6.4,2.6-6.4h2.91l-4.76,11.35h-1.3l-3.03-7.24-2.98,7.24h-1.35l-4.81-11.35h2.94Z"/>
          <path id="S" class="cls-2" d="M24.15,72.49v3.06c-1.3-1.13-2.7-1.76-4.16-1.76s-2.19.7-2.19,1.68c0,.84.31,1.52,2.6,2.77,3.1,1.71,4.43,2.89,4.43,5.36,0,2.62-2.12,4.5-5.2,4.5-1.71,0-3.39-.53-4.86-1.44v-3.32c1.44,1.47,3.01,2.21,4.59,2.21,1.42,0,2.29-.82,2.29-1.85s-.31-1.64-3.3-3.25c-2.12-1.2-3.68-2.48-3.68-4.88s2-4.31,5.17-4.31c1.59,0,3.1.46,4.31,1.23Z"/>
        </g>
      </g>
      <rect id="logoVerticalMargin" class="cls-1" width="93.34" height="102.7"/>
    </g>
  </g>
</svg>