<?xml version="1.0" encoding="UTF-8"?>
<svg id="_レイヤー_2" data-name="レイヤー 2" xmlns="http://www.w3.org/2000/svg" viewBox="0 0 72.4 86.4">
  <defs>
    <style>
      .cls-1 {
        fill: none;
      }

      .cls-2 {
        fill: #00a0c1;
      }
    </style>
  </defs>
  <g id="_レイヤー_1-2" data-name="レイヤー 1">
    <g id="logoMark">
      <path id="logoMarkPath" class="cls-2" d="M56.1,48.15c-.43-4.23-1.4-8.43-2.9-12.5-.41-1.03-1.49-1.56-2.54-1.22-4.31,1.49-8.96,2.13-13.49,1.59-4.65-.69-4.33-7.62.36-7.93,1.76-.12,3.51-.46,5.18-1.01,3.35-1.12,3.9-4.25,1.63-6.55-1.85-1.89-4.05-3.41-6.63-4-.99-.22-2.03-.22-3.02,0-5.38,1.24-8.86,6.23-11.52,10.7-2.05,3.47-3.63,7.11-4.79,10.82-.49,1.65.09,3.44,1.5,4.43,5.05,3.47,11,5.36,17.02,5.62,5.02.21,5.11,7.55.11,7.99-5.82.41-11.61-.33-17.29-1.95-1.61-.4-2.93,1-2.47,2.58,2.12,6.31,7.27,11.31,14.08,12.91,13.16,3.1,24.86-6.8,24.86-19.43,0-.69-.04-1.37-.1-2.05Z"/>
      <rect id="logoMarkMargin" class="cls-1" width="72.4" height="86.4"/>
    </g>
  </g>
</svg>